<svg xmlns="http://www.w3.org/2000/svg" version="1.1" xmlns:xlink="http://www.w3.org/1999/xlink" xmlns:svgjs="http://svgjs.dev/svgjs" width="1440" height="586" preserveAspectRatio="none" viewBox="0 0 1440 586"><g mask="url(&quot;#SvgjsMask1270&quot;)" fill="none"><rect width="1440" height="586" x="0" y="0" fill="rgba(225, 214, 236, 1)"></rect><path d="M1061.78,246.524C1116.649,245.983,1155.224,197.732,1180.425,148.989C1203.265,104.813,1209.91,52.378,1184.15,9.839C1159.186,-31.386,1109.949,-45.361,1061.78,-46.936C1009.889,-48.633,952.045,-42.789,924.716,1.355C896.378,47.13,912.744,104.376,939.015,151.368C966.094,199.804,1006.291,247.071,1061.78,246.524" fill="rgba(222, 180, 238, 0.4)" class="triangle-float2"></path><path d="M1079.444,618.82C1132.822,617.163,1181.849,592.939,1211.288,548.382C1244.438,498.208,1265.099,434.501,1235.986,381.882C1206.199,328.044,1140.753,304.884,1079.444,310.085C1025.96,314.622,990.443,358.903,963.012,405.04C934.712,452.638,906.134,508.399,932.62,557.03C959.84,607.009,1022.56,620.585,1079.444,618.82" fill="rgba(222, 180, 238, 0.4)" class="triangle-float3"></path><path d="M1278.046,436.618C1296.167,436.658,1315.526,431.411,1324.152,415.475C1332.498,400.057,1324.959,382.003,1315.655,367.143C1307.061,353.417,1294.233,342.316,1278.046,341.839C1261.06,341.339,1245.382,350.386,1236.396,364.809C1226.831,380.161,1223.217,399.625,1232.292,415.272C1241.342,430.875,1260.008,436.578,1278.046,436.618" fill="rgba(222, 180, 238, 0.4)" class="triangle-float3"></path><path d="M166.1703464638529 94.29396434893236L283.55143019613575 211.67504808121515 400.93251392841853 94.2939643489323 283.5514301961357-23.087119383350483z" fill="rgba(222, 180, 238, 0.4)" class="triangle-float3"></path><path d="M611.689,229.205C653.431,231.024,701.145,233.709,724.73,199.22C750.446,161.614,744.095,110.047,719.318,71.816C696.497,36.603,653.649,25.087,611.689,24.798C569.083,24.504,523.054,33.586,501.458,70.314C479.645,107.41,489.986,154.7,514.516,190.058C535.85,220.81,574.296,227.575,611.689,229.205" fill="rgba(222, 180, 238, 0.4)" class="triangle-float3"></path><path d="M1192.0426372909724 452.2434786986041L1301.9246086151184 440.69441813309476 1290.375548049609 330.81244680894866 1180.493576725463 342.36150737445803z" fill="rgba(222, 180, 238, 0.4)" class="triangle-float2"></path><path d="M915.301,226.052C938.387,226.72,957.979,209.859,968.473,189.285C978.055,170.5,974.985,148.474,964.08,130.424C953.582,113.048,935.581,102.201,915.301,101.276C893.135,100.265,869.07,106.274,858.15,125.59C847.348,144.697,856.349,167.278,867.202,186.356C878.219,205.723,893.029,225.408,915.301,226.052" fill="rgba(222, 180, 238, 0.4)" class="triangle-float2"></path><path d="M230.47890271370696 493.59044392823114L331.5382980775661 468.39350671362075 306.3413608629557 367.3341113497616 205.28196549909654 392.531048564372z" fill="rgba(222, 180, 238, 0.4)" class="triangle-float2"></path><path d="M65.62,453.888C90.38,452.268,107.967,433.175,121.124,412.138C135.451,389.23,151.051,361.966,137.86,338.386C124.5,314.504,92.978,312.293,65.62,312.924C39.694,313.522,13.048,319.836,-1.068,341.591C-16.39,365.206,-18.442,396.124,-4.068,420.328C10.042,444.088,38.045,455.692,65.62,453.888" fill="rgba(222, 180, 238, 0.4)" class="triangle-float3"></path><path d="M1244.835,419.643C1266.813,420.154,1291.244,416.812,1302.384,397.86C1313.624,378.739,1305.526,355.189,1293.78,336.375C1282.849,318.867,1265.473,305.974,1244.835,305.684C1223.707,305.387,1204.22,316.787,1193.448,334.965C1182.457,353.513,1180.553,376.858,1191.738,395.29C1202.565,413.132,1223.971,419.158,1244.835,419.643" fill="rgba(222, 180, 238, 0.4)" class="triangle-float3"></path><path d="M1326.3820799706075 442.16064727785937L1328.2432986908923 548.7897963494169 1434.8724477624496 546.9285776291322 1433.011229042165 440.29942855757463z" fill="rgba(222, 180, 238, 0.4)" class="triangle-float2"></path></g><defs><mask id="SvgjsMask1270"><rect width="1440" height="586" fill="#ffffff"></rect></mask><style>
                @keyframes float1 {
                    0%{transform: translate(0, 0)}
                    50%{transform: translate(-10px, 0)}
                    100%{transform: translate(0, 0)}
                }

                .triangle-float1 {
                    animation: float1 5s infinite;
                }

                @keyframes float2 {
                    0%{transform: translate(0, 0)}
                    50%{transform: translate(-5px, -5px)}
                    100%{transform: translate(0, 0)}
                }

                .triangle-float2 {
                    animation: float2 4s infinite;
                }

                @keyframes float3 {
                    0%{transform: translate(0, 0)}
                    50%{transform: translate(0, -10px)}
                    100%{transform: translate(0, 0)}
                }

                .triangle-float3 {
                    animation: float3 6s infinite;
                }
            </style></defs></svg>